{
.appVersion = "973";
copyright = "Copyright 2017 Google Inc. All Rights Reserved.";
customParameters = (
{
name = glyphOrder;
value = (
.notdef,
NULL,
CR,
space,
uni0800,
uni0801,
uni0802,
uni0803,
uni0804,
uni0805,
uni0806,
uni0807,
uni0808,
uni0809,
uni080A,
uni080B,
uni080C,
uni080D,
uni080E,
uni080F,
uni0810,
uni0811,
uni0812,
uni0813,
uni0814,
uni0815,
uni0816,
uni0817,
uni0818,
uni0819,
uni081A,
uni081B,
uni081C,
uni081D,
uni081E,
uni081F,
uni0820,
uni0821,
uni0822,
uni0823,
uni0824,
uni0825,
uni0826,
uni0827,
uni0828,
uni0829,
uni082A,
uni082B,
uni082C,
uni082D,
uni0830,
uni0831,
uni0832,
uni0833,
uni0834,
uni0835,
uni0836,
uni0837,
uni0838,
uni0839,
uni083A,
uni083B,
uni083C,
uni083D,
uni083E,
uni0818.alt,
uni2E31,
uni00A0
);
},
{
name = description;
value = "Designed by Monotype design team.";
},
{
name = license;
value = "This Font Software is licensed under the SIL Open Font License, Version 1.1. This Font Software is distributed on an \"AS IS\" BASIS, WITHOUT WARRANTIES OR CONDITIONS OF ANY KIND, either express or implied. See the SIL Open Font License for the specific language, permissions and limitations governing your use of this Font Software.";
},
{
name = licenseURL;
value = "http://scripts.sil.org/OFL";
},
{
name = vendorID;
value = GOOG;
},
{
name = unicodeRanges;
value = (
0,
1,
31
);
},
{
name = trademark;
value = "Noto is a trademark of Google Inc.";
},
{
name = "Has WWS Names";
value = 1;
},
{
name = versionString;
value = "Version 2.000";
},
{
name = fsType;
value = (
);
},
{
name = codePageRanges;
value = (
"1252"
);
}
);
date = "2017-03-01 14:39:58 +0000";
designer = "Monotype Design Team";
designerURL = "http://www.monotype.com/studio";
disablesAutomaticAlignment = 1;
disablesNiceNames = 1;
familyName = "Noto Sans Samaritan";
fontMaster = (
{
alignmentZones = (
"{1069, 15}",
"{659, 15}",
"{536, 15}",
"{0, -15}",
"{-293, -15}"
);
ascender = 1069;
capHeight = 659;
customParameters = (
{
name = typoAscender;
value = 1069;
},
{

glyphs = (
{
glyphname = .notdef;
lastChange = "2017-03-01 14:39:04 +0000";
layers = (
{
layerId = UUID0;
paths = (
{
closed = 1;
nodes = (
"450 0 LINE",
"450 714 LINE",
"50 714 LINE",
"50 0 LINE"
);
},
{
closed = 1;
nodes = (
"98 666 LINE",
"402 666 LINE",
"402 48 LINE",
"98 48 LINE"
);
}
);
width = 500;
}
);
},
{
glyphname = uni0800;
lastChange = "2017-03-01 14:39:04 +0000";
layers = (
{
layerId = UUID0;
paths = (
{
closed = 1;
nodes = (
"226 2 LINE",
"212 30 OFFCURVE",
"208 71 OFFCURVE",
"208 119 CURVE SMOOTH",
"208 225 OFFCURVE",
"240 378 OFFCURVE",
"309 498 CURVE",
"401 421 OFFCURVE",
"463 279 OFFCURVE",
"511 71 CURVE",
"566 60 LINE",
"642 158 OFFCURVE",
"745 255 OFFCURVE",
"858 324 CURVE",
"798 429 LINE",
"708 376 OFFCURVE",
"600 245 OFFCURVE",
"559 173 CURVE",
"543 230 OFFCURVE",
"527 286 OFFCURVE",
"509 336 CURVE",
"581 417 OFFCURVE",
"669 490 OFFCURVE",
"767 549 CURVE",
"708 648 LINE",
"625 599 OFFCURVE",
"540 499 OFFCURVE",
"478 415 CURVE",
"417 553 OFFCURVE",
"335 648 OFFCURVE",
"215 673 CURVE",
"184 558 LINE",
"210 552 OFFCURVE",
"235 543 OFFCURVE",
"258 532 CURVE",
"176 404 OFFCURVE",
"88 229 OFFCURVE",
"88 87 CURVE SMOOTH",
"88 41 OFFCURVE",
"93 -9 OFFCURVE",
"109 -42 CURVE"
);
}
);
width = 927;
}
);
unicode = 0800;
},
{
glyphname = uni0801;
lastChange = "2017-03-01 14:39:04 +0000";
layers = (
{
layerId = UUID0;
paths = (
{
closed = 1;
nodes = (
"666 -39 OFFCURVE",
"708 41 OFFCURVE",
"708 87 CURVE SMOOTH",
"708 148 OFFCURVE",
"377 661 OFFCURVE",
"334 661 CURVE SMOOTH",
"308 661 OFFCURVE",
"295 651 OFFCURVE",
"277 636 CURVE SMOOTH",
"196 565 OFFCURVE",
"73 420 OFFCURVE",
"73 383 CURVE SMOOTH",
"73 367 OFFCURVE",
"81 354 OFFCURVE",
"104 333 CURVE SMOOTH",
"115 323 OFFCURVE",
"133 319 OFFCURVE",
"169 319 CURVE SMOOTH",
"322 319 LINE SMOOTH",
"363 319 OFFCURVE",
"433 316 OFFCURVE",
"491 311 CURVE",
"543 215 OFFCURVE",
"588 124 OFFCURVE",
"588 93 CURVE SMOOTH",
"588 43 OFFCURVE",
"552 39 OFFCURVE",
"493 39 CURVE SMOOTH",
"367 39 OFFCURVE",
"219 116 OFFCURVE",
"106 116 CURVE SMOOTH",
"93 116 OFFCURVE",
"81 115 OFFCURVE",
"68 112 CURVE",
"49 -2 LINE",
"65 1 OFFCURVE",
"84 3 OFFCURVE",
"105 3 CURVE SMOOTH",
"221 3 OFFCURVE",
"375 -39 OFFCURVE",
"502 -39 CURVE SMOOTH"
);
},
{
closed = 1;
nodes = (
"393 395 OFFCURVE",
"332 396 OFFCURVE",
"311 396 CURVE SMOOTH",
"203 396 LINE SMOOTH",
"195 396 OFFCURVE",
"192 398 OFFCURVE",
"192 404 CURVE SMOOTH",
"192 438 OFFCURVE",
"291 574 OFFCURVE",
"311 583 CURVE",
"329 578 OFFCURVE",
"387 492 OFFCURVE",
"444 394 CURVE"
);
}
);
width = 776;
}
);
unicode = 0801;
},
{
glyphname = uni0802;
lastChange = "2017-03-01 14:39:04 +0000";
layers = (
{
layerId = UUID0;
paths = (
{
closed = 1;
nodes = (
"701 0 OFFCURVE",
"713 48 OFFCURVE",
"713 99 CURVE SMOOTH",
"713 225 OFFCURVE",
"623 414 OFFCURVE",
"490 581 CURVE",
"561 581 LINE SMOOTH",
"587 581 OFFCURVE",
"615 581 OFFCURVE",
"642 582 CURVE",
"630 648 LINE",
"600 648 LINE SMOOTH",
"576 648 OFFCURVE",
"462 659 OFFCURVE",
"363 659 CURVE SMOOTH",
"195 659 OFFCURVE",
"77 622 OFFCURVE",
"39 544 CURVE",
"109 458 LINE",
"166 550 OFFCURVE",
"250 573 OFFCURVE",
"395 579 CURVE",
"521 414 OFFCURVE",
"593 247 OFFCURVE",
"593 129 CURVE SMOOTH",
"593 83 OFFCURVE",
"582 40 OFFCURVE",
"561 0 CURVE",
"677 -46 LINE"
);
}
);
width = 791;
}
);
unicode = 0802;
},
{
glyphname = uni0803;
lastChange = "2017-03-01 14:39:04 +0000";
layers = (
{
layerId = UUID0;
paths = (
{
closed = 1;
nodes = (
"566 0 OFFCURVE",
"580 52 OFFCURVE",
"580 103 CURVE SMOOTH",
"580 139 OFFCURVE",
"575 187 OFFCURVE",
"553 244 CURVE SMOOTH",
"510 355 OFFCURVE",
"454 479 OFFCURVE",
"406 562 CURVE",
"420 564 OFFCURVE",
"435 565 OFFCURVE",
"449 565 CURVE SMOOTH",
"479 565 OFFCURVE",
"519 556 OFFCURVE",
"548 545 CURVE",
"577 637 LINE",
"544 648 OFFCURVE",
"501 654 OFFCURVE",
"468 654 CURVE SMOOTH",
"432 654 OFFCURVE",
"395 648 OFFCURVE",
"358 635 CURVE",
"345 650 OFFCURVE",
"334 659 OFFCURVE",
"326 659 CURVE SMOOTH",
"289 659 OFFCURVE",
"269 641 OFFCURVE",
"251 625 CURVE SMOOTH",
"170 555 OFFCURVE",
"63 420 OFFCURVE",
"63 383 CURVE SMOOTH",
"63 367 OFFCURVE",
"72 354 OFFCURVE",
"95 333 CURVE SMOOTH",
"106 323 OFFCURVE",
"124 319 OFFCURVE",
"160 319 CURVE SMOOTH",
"312 319 LINE SMOOTH",
"338 319 OFFCURVE",
"387 317 OFFCURVE",
"427 315 CURVE",
"450 252 OFFCURVE",
"460 190 OFFCURVE",
"460 143 CURVE SMOOTH",
"460 97 OFFCURVE",
"446 41 OFFCURVE",
"425 0 CURVE",
"542 -46 LINE"
);
},
{
closed = 1;
nodes = (
"365 396 OFFCURVE",
"316 396 OFFCURVE",
"301 396 CURVE SMOOTH",
"193 396 LINE SMOOTH",
"186 396 OFFCURVE",
"183 398 OFFCURVE",
"183 404 CURVE SMOOTH",
"183 438 OFFCURVE",
"281 574 OFFCURVE",
"301 583 CURVE",
"324 581 OFFCURVE",
"364 496 OFFCURVE",
"402 395 CURVE"
);
}
);
width = 658;
}
);
unicode = 0803;
},
{
glyphname = uni0804;
lastChange = "2017-03-01 14:39:04 +0000";
layers = (
{
layerId = UUID0;
paths = (
{
closed = 1;
nodes = (
"769 0 OFFCURVE",
"780 49 OFFCURVE",
"780 99 CURVE SMOOTH",
"780 229 OFFCURVE",
"685 426 OFFCURVE",
"545 597 CURVE SMOOTH",
"499 653 LINE",
"478 657 OFFCURVE",
"403 660 OFFCURVE",
"374 660 CURVE SMOOTH",
"238 660 OFFCURVE",
"102 625 OFFCURVE",
"63 546 CURVE",
"133 460 LINE",
"167 515 OFFCURVE",
"217 581 OFFCURVE",
"459 583 CURVE",
"469 569 OFFCURVE",
"480 556 OFFCURVE",
"490 542 CURVE",
"415 499 OFFCURVE",
"226 414 OFFCURVE",
"190 287 CURVE",
"291 247 LINE",
"307 344 OFFCURVE",
"413 438 OFFCURVE",
"524 491 CURVE",
"558 439 OFFCURVE",
"586 388 OFFCURVE",
"608 339 CURVE",
"535 296 OFFCURVE",
"341 211 OFFCURVE",
"305 82 CURVE",
"406 42 LINE",
"421 137 OFFCURVE",
"531 221 OFFCURVE",
"631 282 CURVE",
"652 226 OFFCURVE",
"661 174 OFFCURVE",
"661 130 CURVE SMOOTH",
"661 84 OFFCURVE",
"650 41 OFFCURVE",
"628 0 CURVE",
"745 -46 LINE"
);
}
);
width = 858;
}
);
unicode = 0804;
},
{
glyphname = uni0805;
lastChange = "2017-03-01 14:39:04 +0000";
layers = (
{
layerId = UUID0;
paths = (
{
closed = 1;
nodes = (
"837 0 OFFCURVE",
"848 49 OFFCURVE",
"848 99 CURVE SMOOTH",
"848 229 OFFCURVE",
"726 446 OFFCURVE",
"595 624 CURVE SMOOTH",
"583 640 OFFCURVE",
"566 666 OFFCURVE",
"551 666 CURVE SMOOTH",
"524 666 OFFCURVE",
"482 662 OFFCURVE",
"433 655 CURVE SMOOTH",
"301 637 OFFCURVE",
"116 603 OFFCURVE",
"63 468 CURVE",
"146 393 LINE",
"198 514 OFFCURVE",
"288 560 OFFCURVE",
"515 593 CURVE",
"545 554 OFFCURVE",
"573 514 OFFCURVE",
"598 475 CURVE",
"488 425 OFFCURVE",
"309 339 OFFCURVE",
"270 237 CURVE",
"364 183 LINE",
"387 266 OFFCURVE",
"500 348 OFFCURVE",
"634 416 CURVE",
"694 308 OFFCURVE",
"729 207 OFFCURVE",
"729 130 CURVE SMOOTH",
"729 84 OFFCURVE",
"718 41 OFFCURVE",
"696 0 CURVE",
"813 -46 LINE"
);
}
);
width = 926;
}
);
unicode = 0805;
},
{
glyphname = uni0806;
lastChange = "2017-03-01 14:39:04 +0000";
layers = (
{
layerId = UUID0;
paths = (
{
closed = 1;
nodes = (
"497 65 OFFCURVE",
"800 6 OFFCURVE",
"800 166 CURVE SMOOTH",
"800 252 OFFCURVE",
"704 664 OFFCURVE",
"622 664 CURVE SMOOTH",
"513 664 OFFCURVE",
"359 599 OFFCURVE",
"264 537 CURVE",
"238 643 OFFCURVE",
"201 721 OFFCURVE",
"104 733 CURVE",
"63 623 LINE",
"190 616 OFFCURVE",
"204 437 OFFCURVE",
"260 226 CURVE SMOOTH",
"268 197 OFFCURVE",
"294 185 OFFCURVE",
"321 185 CURVE SMOOTH",
"360 185 OFFCURVE",
"467 200 OFFCURVE",
"652 333 CURVE",
"668 265 OFFCURVE",
"681 203 OFFCURVE",
"681 181 CURVE SMOOTH",
"681 91 OFFCURVE",
"577 89 OFFCURVE",
"465 89 CURVE SMOOTH",
"401 89 OFFCURVE",
"326 84 OFFCURVE",
"276 48 CURVE",
"330 -53 LINE"
);
},
{
closed = 1;
nodes = (
"309 315 OFFCURVE",
"298 377 OFFCURVE",
"286 435 CURVE",
"398 536 OFFCURVE",
"502 580 OFFCURVE",
"564 580 CURVE SMOOTH",
"579 580 OFFCURVE",
"601 517 OFFCURVE",
"623 440 CURVE",
"540 346 OFFCURVE",
"428 257 OFFCURVE",
"327 254 CURVE"
);
}
);
width = 878;
}
);
unicode = 0806;
},
{
glyphname = uni0807;
lastChange = "2017-03-01 14:39:04 +0000";
layers = (
{
layerId = UUID0;
paths = (
{
closed = 1;
nodes = (
"856 0 OFFCURVE",
"867 48 OFFCURVE",
"867 99 CURVE SMOOTH",
"867 229 OFFCURVE",
"774 428 OFFCURVE",
"632 596 CURVE SMOOTH",
"586 650 LINE",
"565 654 OFFCURVE",
"486 659 OFFCURVE",
"456 659 CURVE SMOOTH",
"355 659 OFFCURVE",
"255 640 OFFCURVE",
"194 598 CURVE",
"149 641 OFFCURVE",
"100 669 OFFCURVE",
"46 677 CURVE",
"15 562 LINE",
"180 529 OFFCURVE",
"280 372 OFFCURVE",
"346 80 CURVE",
"461 51 LINE",
"477 143 OFFCURVE",
"609 231 OFFCURVE",
"711 292 CURVE",
"736 232 OFFCURVE",
"748 177 OFFCURVE",
"748 129 CURVE SMOOTH",
"748 83 OFFCURVE",
"737 40 OFFCURVE",
"715 0 CURVE",
"832 -46 LINE"
);
},
{
closed = 1;
nodes = (
"390 175 OFFCURVE",
"384 209 OFFCURVE",
"376 243 CURVE",
"415 327 OFFCURVE",
"527 416 OFFCURVE",
"616 471 CURVE",
"643 430 OFFCURVE",
"666 390 OFFCURVE",
"685 351 CURVE",
"614 312 OFFCURVE",
"462 236 OFFCURVE",
"393 142 CURVE"
);
},
{
closed = 1;
nodes = (
"317 422 OFFCURVE",
"292 471 OFFCURVE",
"263 515 CURVE",
"306 550 OFFCURVE",
"381 580 OFFCURVE",
"537 583 CURVE",
"552 563 OFFCURVE",
"566 543 OFFCURVE",
"580 523 CURVE",
"523 492 OFFCURVE",
"411 439 OFFCURVE",
"337 370 CURVE"
);
}
);
width = 945;
}
);
unicode = 0807;
},
{
glyphname = uni0808;
lastChange = "2017-03-01 14:39:04 +0000";
layers = (
{
layerId = UUID0;
paths = (
{
closed = 1;
nodes = (
"544 -39 OFFCURVE",
"647 65 OFFCURVE",
"721 180 CURVE SMOOTH",
"790 288 OFFCURVE",
"860 437 OFFCURVE",
"865 568 CURVE",
"857 615 OFFCURVE",
"808 659 OFFCURVE",
"751 659 CURVE SMOOTH",
"662 659 OFFCURVE",
"474 527 OFFCURVE",
"474 478 CURVE SMOOTH",
"474 431 OFFCURVE",
"486 399 OFFCURVE",
"523 360 CURVE",
"609 446 LINE",
"599 458 OFFCURVE",
"591 470 OFFCURVE",
"591 489 CURVE SMOOTH",
"591 530 OFFCURVE",
"661 569 OFFCURVE",
"719 569 CURVE SMOOTH",
"736 569 OFFCURVE",
"745 563 OFFCURVE",
"745 551 CURVE SMOOTH",
"745 414 OFFCURVE",
"678 235 OFFCURVE",
"587 134 CURVE SMOOTH",
"542 84 OFFCURVE",
"497 59 OFFCURVE",
"450 59 CURVE SMOOTH",
"345 59 OFFCURVE",
"215 373 OFFCURVE",
"215 512 CURVE SMOOTH",
"215 525 OFFCURVE",
"232 533 OFFCURVE",
"277 544 CURVE SMOOTH",
"351 562 OFFCURVE",
"408 575 OFFCURVE",
"464 605 CURVE",
"434 667 LINE",
"398 645 OFFCURVE",
"333 626 OFFCURVE",
"240 611 CURVE SMOOTH",
"146 596 OFFCURVE",
"96 583 OFFCURVE",
"88 573 CURVE",
"88 505 OFFCURVE",
"105 417 OFFCURVE",
"141 309 CURVE SMOOTH",
"197 140 OFFCURVE",
"295 -39 OFFCURVE",
"438 -39 CURVE SMOOTH"
);
}
);
width = 953;
}
);
unicode = 0808;
},
{
glyphname = uni0809;
lastChange = "2017-03-01 14:39:04 +0000";
layers = (
{
layerId = UUID0;
paths = (
{
closed = 1;
nodes = (
"695 96 OFFCURVE",
"878 331 OFFCURVE",
"878 503 CURVE SMOOTH",
"878 505 OFFCURVE",
"878 507 OFFCURVE",
"877 508 CURVE",
"910 566 OFFCURVE",
"965 583 OFFCURVE",
"1045 610 CURVE",
"1021 719 LINE",
"938 694 OFFCURVE",
"885 657 OFFCURVE",
"848 612 CURVE",
"819 653 OFFCURVE",
"773 674 OFFCURVE",
"719 674 CURVE SMOOTH",
"648 674 OFFCURVE",
"584 633 OFFCURVE",
"528 574 CURVE",
"503 620 OFFCURVE",
"460 643 OFFCURVE",
"402 643 CURVE SMOOTH",
"229 643 OFFCURVE",
"94 407 OFFCURVE",
"49 208 CURVE",
"180 235 LINE",
"206 336 OFFCURVE",
"272 567 OFFCURVE",
"393 567 CURVE SMOOTH",
"436 567 OFFCURVE",
"461 543 OFFCURVE",
"467 497 CURVE",
"363 347 OFFCURVE",
"300 148 OFFCURVE",
"298 102 CURVE",
"426 116 LINE",
"430 191 OFFCURVE",
"560 599 OFFCURVE",
"709 599 CURVE SMOOTH",
"763 599 OFFCURVE",
"798 562 OFFCURVE",
"798 504 CURVE SMOOTH",
"798 354 OFFCURVE",
"582 128 OFFCURVE",
"563 0 CURVE",
"686 -32 LINE"
);
}
);
width = 1094;
}
);
unicode = 0809;
},
{
glyphname = uni080A;
lastChange = "2017-03-01 14:39:04 +0000";
layers = (
{
layerId = UUID0;
paths = (
{
closed = 1;
nodes = (
"576 -42 OFFCURVE",
"615 39 OFFCURVE",
"615 85 CURVE SMOOTH",
"615 88 OFFCURVE",
"615 115 OFFCURVE",
"615 157 CURVE SMOOTH",
"615 281 OFFCURVE",
"619 524 OFFCURVE",
"648 629 CURVE",
"530 655 LINE",
"505 558 OFFCURVE",
"456 498 OFFCURVE",
"350 498 CURVE SMOOTH",
"252 498 OFFCURVE",
"216 527 OFFCURVE",
"216 588 CURVE SMOOTH",
"216 601 OFFCURVE",
"217 614 OFFCURVE",
"220 627 CURVE",
"106 658 LINE",
"101 638 OFFCURVE",
"99 618 OFFCURVE",
"99 599 CURVE SMOOTH",
"99 484 OFFCURVE",
"184 420 OFFCURVE",
"333 420 CURVE SMOOTH",
"407 420 OFFCURVE",
"468 440 OFFCURVE",
"514 475 CURVE",
"513 460 OFFCURVE",
"513 444 OFFCURVE",
"513 429 CURVE SMOOTH",
"513 299 OFFCURVE",
"536 186 OFFCURVE",
"536 114 CURVE SMOOTH",
"536 61 OFFCURVE",
"496 35 OFFCURVE",
"438 35 CURVE SMOOTH",
"300 35 OFFCURVE",
"245 113 OFFCURVE",
"159 113 CURVE SMOOTH",
"132 113 OFFCURVE",
"120 111 OFFCURVE",
"107 109 CURVE",
"88 -6 LINE",
"104 -2 OFFCURVE",
"133 0 OFFCURVE",
"154 0 CURVE SMOOTH",
"229 0 OFFCURVE",
"264 -42 OFFCURVE",
"438 -42 CURVE SMOOTH"
);
}
);
width = 736;
}
);
unicode = 080A;
},
{
glyphname = uni080B;
lastChange = "2017-03-01 14:39:04 +0000";
layers = (
{
layerId = UUID0;
paths = (
{
closed = 1;
nodes = (
"264 -28 OFFCURVE",
"343 0 OFFCURVE",
"458 0 CURVE SMOOTH",
"480 0 OFFCURVE",
"513 -1 OFFCURVE",
"529 -6 CURVE",
"510 109 LINE",
"497 111 OFFCURVE",
"470 113 OFFCURVE",
"458 113 CURVE SMOOTH",
"345 113 OFFCURVE",
"266 49 OFFCURVE",
"150 49 CURVE SMOOTH",
"132 49 OFFCURVE",
"116 53 OFFCURVE",
"102 60 CURVE",
"234 262 OFFCURVE",
"389 467 OFFCURVE",
"389 664 CURVE SMOOTH",
"389 726 OFFCURVE",
"359 825 OFFCURVE",
"251 881 CURVE",
"202 768 LINE",
"265 747 OFFCURVE",
"297 692 OFFCURVE",
"297 629 CURVE SMOOTH",
"297 455 OFFCURVE",
"128 193 OFFCURVE",
"42 83 CURVE",
"20 -5 LINE",
"50 -20 OFFCURVE",
"88 -28 OFFCURVE",
"136 -28 CURVE SMOOTH"
);
}
);
width = 607;
}
);
unicode = 080B;
},
{
glyphname = uni080C;
lastChange = "2017-03-01 14:39:04 +0000";
layers = (
{
layerId = UUID0;
paths = (
{
closed = 1;
nodes = (
"751 -43 OFFCURVE",
"791 37 OFFCURVE",
"791 83 CURVE SMOOTH",
"791 86 OFFCURVE",
"791 113 OFFCURVE",
"791 155 CURVE SMOOTH",
"791 280 OFFCURVE",
"794 528 OFFCURVE",
"824 632 CURVE",
"706 658 LINE",
"701 633 OFFCURVE",
"698 608 OFFCURVE",
"695 583 CURVE",
"671 494 OFFCURVE",
"639 417 OFFCURVE",
"573 417 CURVE SMOOTH",
"504 417 OFFCURVE",
"493 475 OFFCURVE",
"493 528 CURVE SMOOTH",
"493 554 OFFCURVE",
"499 594 OFFCURVE",
"508 631 CURVE",
"403 662 LINE",
"396 636 OFFCURVE",
"391 608 OFFCURVE",
"388 582 CURVE",
"365 494 OFFCURVE",
"331 417 OFFCURVE",
"267 417 CURVE SMOOTH",
"197 417 OFFCURVE",
"186 475 OFFCURVE",
"186 528 CURVE SMOOTH",
"186 554 OFFCURVE",
"191 594 OFFCURVE",
"201 631 CURVE",
"96 662 LINE",
"83 616 OFFCURVE",
"78 565 OFFCURVE",
"78 530 CURVE SMOOTH",
"78 411 OFFCURVE",
"141 340 OFFCURVE",
"259 340 CURVE SMOOTH",
"327 340 OFFCURVE",
"374 373 OFFCURVE",
"408 423 CURVE",
"436 370 OFFCURVE",
"490 340 OFFCURVE",
"566 340 CURVE SMOOTH",
"619 340 OFFCURVE",
"659 359 OFFCURVE",
"690 392 CURVE",
"694 279 OFFCURVE",
"711 176 OFFCURVE",
"711 112 CURVE SMOOTH",
"711 60 OFFCURVE",
"672 34 OFFCURVE",
"614 34 CURVE SMOOTH",
"325 34 OFFCURVE",
"303 121 OFFCURVE",
"166 121 CURVE SMOOTH",
"139 121 OFFCURVE",
"113 119 OFFCURVE",
"100 117 CURVE",
"81 2 LINE",
"97 6 OFFCURVE",
"140 8 OFFCURVE",
"161 8 CURVE SMOOTH",
"314 8 OFFCURVE",
"374 -43 OFFCURVE",
"614 -43 CURVE SMOOTH"
);
}
);
width = 912;
}
);
unicode = 080C;
},
{
glyphname = uni080D;
lastChange = "2017-03-01 14:39:04 +0000";
layers = (
{
layerId = UUID0;
paths = (
{
closed = 1;
nodes = (
"629 -34 OFFCURVE",
"639 149 OFFCURVE",
"639 314 CURVE SMOOTH",
"639 548 OFFCURVE",
"600 659 OFFCURVE",
"375 659 CURVE SMOOTH",
"308 659 OFFCURVE",
"239 647 OFFCURVE",
"181 624 CURVE",
"179 642 OFFCURVE",
"179 659 OFFCURVE",
"179 677 CURVE SMOOTH",
"179 768 OFFCURVE",
"194 859 OFFCURVE",
"214 937 CURVE",
"94 962 LINE",
"83 908 OFFCURVE",
"78 861 OFFCURVE",
"78 799 CURVE SMOOTH",
"78 719 OFFCURVE",
"98 598 OFFCURVE",
"117 544 CURVE",
"166 530 LINE",
"202 561 OFFCURVE",
"259 582 OFFCURVE",
"351 582 CURVE SMOOTH",
"516 582 OFFCURVE",
"522 463 OFFCURVE",
"522 329 CURVE SMOOTH",
"522 206 OFFCURVE",
"512 43 OFFCURVE",
"393 43 CURVE SMOOTH",
"277 43 OFFCURVE",
"254 107 OFFCURVE",
"142 107 CURVE SMOOTH",
"129 107 OFFCURVE",
"117 105 OFFCURVE",
"104 103 CURVE",
"84 -12 LINE",
"101 -7 OFFCURVE",
"120 -6 OFFCURVE",
"141 -6 CURVE SMOOTH",
"257 -6 OFFCURVE",
"274 -34 OFFCURVE",
"402 -34 CURVE SMOOTH"
);
}
);
width = 727;
}
);
unicode = 080D;
},
{
glyphname = uni080E;
lastChange = "2017-03-01 14:39:04 +0000";
layers = (
{
layerId = UUID0;
paths = (
{
closed = 1;
nodes = (
"338 -16 LINE",
"338 8 OFFCURVE",
"336 35 OFFCURVE",
"331 63 CURVE",
"427 94 OFFCURVE",
"712 229 OFFCURVE",
"712 304 CURVE SMOOTH",
"712 399 OFFCURVE",
"436 604 OFFCURVE",
"271 666 CURVE",
"287 708 OFFCURVE",
"297 751 OFFCURVE",
"297 792 CURVE SMOOTH",
"297 854 OFFCURVE",
"268 944 OFFCURVE",
"161 1001 CURVE",
"106 899 LINE",
"169 878 OFFCURVE",
"206 812 OFFCURVE",
"206 759 CURVE SMOOTH",
"206 727 OFFCURVE",
"197 665 OFFCURVE",
"191 629 CURVE",
"220 618 OFFCURVE",
"252 603 OFFCURVE",
"285 584 CURVE",
"225 493 OFFCURVE",
"127 439 OFFCURVE",
"106 423 CURVE SMOOTH",
"90 411 OFFCURVE",
"78 400 OFFCURVE",
"78 386 CURVE SMOOTH",
"78 368 OFFCURVE",
"96 343 OFFCURVE",
"101 334 CURVE SMOOTH",
"157 238 OFFCURVE",
"201 161 OFFCURVE",
"219 -38 CURVE"
);
},
{
closed = 1;
nodes = (
"285 221 OFFCURVE",
"230 317 OFFCURVE",
"162 380 CURVE",
"242 423 OFFCURVE",
"329 480 OFFCURVE",
"371 531 CURVE",
"461 468 OFFCURVE",
"546 388 OFFCURVE",
"590 306 CURVE",
"539 238 OFFCURVE",
"433 175 OFFCURVE",
"314 127 CURVE"
);
}
);
width = 771;
}
);
unicode = 080E;
},
{
glyphname = uni080F;
lastChange = "2017-03-01 14:39:04 +0000";
layers = (
{
layerId = UUID0;
paths = (
{
closed = 1;
nodes = (
"648 75 OFFCURVE",
"810 385 OFFCURVE",
"810 569 CURVE SMOOTH",
"810 577 OFFCURVE",
"809 584 OFFCURVE",
"809 591 CURVE",
"759 626 OFFCURVE",
"652 664 OFFCURVE",
"456 664 CURVE SMOOTH",
"258 664 OFFCURVE",
"116 628 OFFCURVE",
"88 591 CURVE",
"88 450 OFFCURVE",
"221 75 OFFCURVE",
"453 75 CURVE SMOOTH"
);
},
{
closed = 1;
nodes = (
"359 173 OFFCURVE",
"215 407 OFFCURVE",
"215 526 CURVE SMOOTH",
"215 564 OFFCURVE",
"337 586 OFFCURVE",
"456 586 CURVE SMOOTH",
"580 586 OFFCURVE",
"723 564 OFFCURVE",
"723 526 CURVE SMOOTH",
"723 385 OFFCURVE",
"571 173 OFFCURVE",
"465 173 CURVE SMOOTH"
);
}
);
width = 898;
}
);
unicode = 080F;
},
{
glyphname = uni0810;
lastChange = "2017-03-01 14:39:04 +0000";
layers = (
{
layerId = UUID0;
paths = (
{
closed = 1;
nodes = (
"656 -29 OFFCURVE",
"666 143 OFFCURVE",
"666 308 CURVE SMOOTH",
"666 542 OFFCURVE",
"626 664 OFFCURVE",
"401 664 CURVE SMOOTH",
"291 664 OFFCURVE",
"210 660 OFFCURVE",
"78 578 CURVE",
"141 486 LINE",
"177 517 OFFCURVE",
"286 586 OFFCURVE",
"377 586 CURVE SMOOTH",
"542 586 OFFCURVE",
"549 457 OFFCURVE",
"549 323 CURVE SMOOTH",
"549 199 OFFCURVE",
"539 48 OFFCURVE",
"420 48 CURVE SMOOTH",
"304 48 OFFCURVE",
"249 112 OFFCURVE",
"136 112 CURVE SMOOTH",
"124 112 OFFCURVE",
"111 110 OFFCURVE",
"98 108 CURVE",
"79 -7 LINE",
"95 -2 OFFCURVE",
"114 -1 OFFCURVE",
"135 -1 CURVE SMOOTH",
"251 -1 OFFCURVE",
"302 -29 OFFCURVE",
"430 -29 CURVE SMOOTH"
);
}
);
width = 754;
}
);
unicode = 0810;
},
{
glyphname = uni0811;
lastChange = "2017-03-01 14:39:04 +0000";
layers = (
{
layerId = UUID0;
paths = (
{
closed = 1;
nodes = (
"801 86 OFFCURVE",
"984 321 OFFCURVE",
"984 494 CURVE SMOOTH",
"984 606 OFFCURVE",
"915 664 OFFCURVE",
"825 664 CURVE SMOOTH",
"753 664 OFFCURVE",
"688 623 OFFCURVE",
"632 562 CURVE",
"607 605 OFFCURVE",
"564 626 OFFCURVE",
"508 626 CURVE SMOOTH",
"377 626 OFFCURVE",
"269 498 OFFCURVE",
"204 349 CURVE",
"164 364 OFFCURVE",
"122 375 OFFCURVE",
"79 375 CURVE SMOOTH",
"59 375 OFFCURVE",
"39 373 OFFCURVE",
"20 367 CURVE",
"38 262 LINE",
"63 272 OFFCURVE",
"87 274 OFFCURVE",
"113 274 CURVE SMOOTH",
"164 274 OFFCURVE",
"215 257 OFFCURVE",
"286 225 CURVE",
"312 326 OFFCURVE",
"378 551 OFFCURVE",
"499 551 CURVE SMOOTH",
"541 551 OFFCURVE",
"565 529 OFFCURVE",
"572 486 CURVE",
"469 336 OFFCURVE",
"406 138 OFFCURVE",
"404 92 CURVE",
"532 106 LINE",
"536 182 OFFCURVE",
"666 589 OFFCURVE",
"815 589 CURVE SMOOTH",
"869 589 OFFCURVE",
"904 552 OFFCURVE",
"904 495 CURVE SMOOTH",
"904 345 OFFCURVE",
"688 118 OFFCURVE",
"669 0 CURVE",
"792 -37 LINE"
);
}
);
width = 1072;
}
);
unicode = 0811;
},
{
glyphname = uni0812;
lastChange = "2017-03-01 14:39:04 +0000";
layers = (
{
layerId = UUID0;
paths = (
{
closed = 1;
nodes = (
"415 -11 OFFCURVE",
"422 23 OFFCURVE",
"422 61 CURVE SMOOTH",
"422 105 OFFCURVE",
"412 151 OFFCURVE",
"394 199 CURVE",
"474 268 LINE SMOOTH",
"521 309 OFFCURVE",
"640 411 OFFCURVE",
"640 451 CURVE SMOOTH",
"640 551 OFFCURVE",
"545 678 OFFCURVE",
"366 678 CURVE SMOOTH",
"272 678 OFFCURVE",
"178 649 OFFCURVE",
"68 569 CURVE",
"212 397 OFFCURVE",
"302 228 OFFCURVE",
"302 87 CURVE SMOOTH",
"302 55 OFFCURVE",
"297 26 OFFCURVE",
"286 0 CURVE",
"399 -40 LINE"
);
},
{
closed = 1;
nodes = (
"347 303 OFFCURVE",
"327 337 OFFCURVE",
"305 373 CURVE SMOOTH",
"268 432 OFFCURVE",
"226 487 OFFCURVE",
"181 537 CURVE",
"233 583 OFFCURVE",
"297 605 OFFCURVE",
"355 605 CURVE SMOOTH",
"477 605 OFFCURVE",
"523 516 OFFCURVE",
"523 444 CURVE SMOOTH",
"523 419 OFFCURVE",
"495 383 OFFCURVE",
"454 347 CURVE SMOOTH",
"364 268 LINE"
);
}
);
width = 728;
}
);
unicode = 0812;
},
{
glyphname = uni0813;
lastChange = "2017-03-01 14:39:04 +0000";
layers = (
{
layerId = UUID0;
paths = (
{
closed = 1;
nodes = (
"630 -25 OFFCURVE",
"635 0 OFFCURVE",
"635 30 CURVE SMOOTH",
"635 173 OFFCURVE",
"509 439 OFFCURVE",
"397 620 CURVE SMOOTH",
"384 640 OFFCURVE",
"368 671 OFFCURVE",
"347 671 CURVE SMOOTH",
"324 671 OFFCURVE",
"310 660 OFFCURVE",
"292 644 CURVE SMOOTH",
"211 573 OFFCURVE",
"63 387 OFFCURVE",
"63 350 CURVE SMOOTH",
"63 334 OFFCURVE",
"72 321 OFFCURVE",
"95 301 CURVE SMOOTH",
"106 291 OFFCURVE",
"124 286 OFFCURVE",
"160 286 CURVE SMOOTH",
"303 286 LINE SMOOTH",
"347 286 OFFCURVE",
"422 283 OFFCURVE",
"483 277 CURVE",
"502 213 OFFCURVE",
"515 145 OFFCURVE",
"515 76 CURVE SMOOTH",
"515 48 OFFCURVE",
"511 22 OFFCURVE",
"503 0 CURVE",
"620 -45 LINE"
);
},
{
closed = 1;
nodes = (
"399 362 OFFCURVE",
"317 364 OFFCURVE",
"292 364 CURVE SMOOTH",
"194 364 LINE SMOOTH",
"186 364 OFFCURVE",
"183 365 OFFCURVE",
"183 371 CURVE SMOOTH",
"183 406 OFFCURVE",
"310 580 OFFCURVE",
"329 589 CURVE",
"349 568 OFFCURVE",
"407 478 OFFCURVE",
"454 360 CURVE"
);
}
);
width = 713;
}
);
unicode = 0813;
},
{
glyphname = uni0814;
lastChange = "2017-03-01 14:39:04 +0000";
layers = (
{
layerId = UUID0;
paths = (
{
closed = 1;
nodes = (
"317 369 OFFCURVE",
"365 402 OFFCURVE",
"399 452 CURVE",
"427 399 OFFCURVE",
"485 369 OFFCURVE",
"562 369 CURVE SMOOTH",
"688 369 OFFCURVE",
"773 447 OFFCURVE",
"778 666 CURVE",
"698 691 LINE",
"694 516 OFFCURVE",
"642 446 OFFCURVE",
"574 446 CURVE SMOOTH",
"505 446 OFFCURVE",
"493 504 OFFCURVE",
"493 557 CURVE SMOOTH",
"493 583 OFFCURVE",
"499 624 OFFCURVE",
"508 660 CURVE",
"394 691 LINE",
"386 665 OFFCURVE",
"381 637 OFFCURVE",
"378 611 CURVE",
"355 523 OFFCURVE",
"322 446 OFFCURVE",
"257 446 CURVE SMOOTH",
"188 446 OFFCURVE",
"176 504 OFFCURVE",
"176 557 CURVE SMOOTH",
"176 583 OFFCURVE",
"182 624 OFFCURVE",
"192 660 CURVE",
"82 691 LINE",
"69 646 OFFCURVE",
"63 595 OFFCURVE",
"63 559 CURVE SMOOTH",
"63 440 OFFCURVE",
"131 369 OFFCURVE",
"250 369 CURVE SMOOTH"
);
}
);
width = 841;
}
);
unicode = 0814;
},
{
glyphname = uni0815;
lastChange = "2017-03-01 14:39:04 +0000";
layers = (
{
layerId = UUID0;
paths = (
{
closed = 1;
nodes = (
"226 0 LINE",
"212 28 OFFCURVE",
"208 69 OFFCURVE",
"208 117 CURVE SMOOTH",
"208 223 OFFCURVE",
"243 374 OFFCURVE",
"313 493 CURVE",
"402 416 OFFCURVE",
"463 275 OFFCURVE",
"511 69 CURVE",
"566 58 LINE",
"642 156 OFFCURVE",
"745 253 OFFCURVE",
"858 322 CURVE",
"798 427 LINE",
"708 374 OFFCURVE",
"600 239 OFFCURVE",
"564 187 CURVE",
"498 448 OFFCURVE",
"398 634 OFFCURVE",
"215 671 CURVE",
"184 556 LINE",
"208 551 OFFCURVE",
"230 543 OFFCURVE",
"251 533 CURVE",
"169 405 OFFCURVE",
"88 229 OFFCURVE",
"88 85 CURVE SMOOTH",
"88 39 OFFCURVE",
"93 -11 OFFCURVE",
"109 -44 CURVE"
);
}
);
width = 937;
}
);
unicode = 0815;
},
{
glyphname = uni0816;
lastChange = "2017-03-01 14:39:04 +0000";
layers = (
{
layerId = UUID0;
paths = (
{
closed = 1;
nodes = (
"238 791 OFFCURVE",
"267 812 OFFCURVE",
"297 847 CURVE",
"261 884 LINE",
"242 865 OFFCURVE",
"225 847 OFFCURVE",
"199 847 CURVE SMOOTH",
"179 847 OFFCURVE",
"158 859 OFFCURVE",
"158 881 CURVE SMOOTH",
"158 891 OFFCURVE",
"161 907 OFFCURVE",
"169 913 CURVE SMOOTH",
"188 927 LINE",
"151 964 LINE",
"128 943 OFFCURVE",
"118 935 OFFCURVE",
"101 935 CURVE SMOOTH",
"75 935 OFFCURVE",
"60 949 OFFCURVE",
"60 972 CURVE SMOOTH",
"60 990 OFFCURVE",
"82 1020 OFFCURVE",
"93 1024 CURVE",
"49 1063 LINE",
"20 1040 OFFCURVE",
"0 1008 OFFCURVE",
"0 976 CURVE SMOOTH",
"0 929 OFFCURVE",
"35 893 OFFCURVE",
"97 887 CURVE",
"97 884 OFFCURVE",
"96 882 OFFCURVE",
"96 879 CURVE SMOOTH",
"96 824 OFFCURVE",
"141 791 OFFCURVE",
"199 791 CURVE SMOOTH"
);
}
);
width = 0;
}
);
unicode = 0816;
},
{
glyphname = uni0817;
lastChange = "2017-03-01 14:39:04 +0000";
layers = (
{
layerId = UUID0;
paths = (
{
closed = 1;
nodes = (
"147 791 OFFCURVE",
"181 800 OFFCURVE",
"215 815 CURVE",
"205 849 LINE",
"201 848 OFFCURVE",
"198 848 OFFCURVE",
"194 848 CURVE SMOOTH",
"167 848 OFFCURVE",
"158 863 OFFCURVE",
"158 879 CURVE SMOOTH",
"158 892 OFFCURVE",
"168 909 OFFCURVE",
"188 915 CURVE",
"172 962 LINE",
"124 945 OFFCURVE",
"99 917 OFFCURVE",
"99 877 CURVE SMOOTH",
"99 860 OFFCURVE",
"104 849 OFFCURVE",
"113 833 CURVE",
"111 833 LINE SMOOTH",
"76 833 OFFCURVE",
"58 856 OFFCURVE",
"58 913 CURVE SMOOTH",
"58 953 OFFCURVE",
"64 993 OFFCURVE",
"77 1054 CURVE",
"14 1064 LINE",
"5 1027 OFFCURVE",
"0 975 OFFCURVE",
"0 929 CURVE SMOOTH",
"0 841 OFFCURVE",
"38 791 OFFCURVE",
"112 791 CURVE SMOOTH"
);
}
);
width = 0;
}
);
unicode = 0817;
},
{
glyphname = uni0818;
lastChange = "2017-03-01 14:39:04 +0000";
layers = (
{
layerId = UUID0;
paths = (
{
closed = 1;
nodes = (
"642 791 LINE",
"653 854 LINE",
"11 854 LINE",
"0 791 LINE"
);
}
);
width = 0;
}
);
unicode = 0818;
},
{
glyphname = uni0819;
lastChange = "2017-03-01 14:39:04 +0000";
layers = (
{
layerId = UUID0;
paths = (
{
closed = 1;
nodes = (
"49 808 OFFCURVE",
"146 849 OFFCURVE",
"212 869 CURVE",
"224 923 LINE",
"184 935 OFFCURVE",
"78 984 OFFCURVE",
"36 1017 CURVE",
"8 970 LINE",
"53 942 OFFCURVE",
"109 918 OFFCURVE",
"151 904 CURVE",
"77 885 OFFCURVE",
"52 872 OFFCURVE",
"9 848 CURVE",
"4 784 LINE"
);
}
);
width = 0;
}
);
unicode = 0819;
},
{
glyphname = uni081A;
lastChange = "2017-03-01 14:39:04 +0000";
layers = (
{
layerId = UUID0;
paths = (
{
closed = 1;
nodes = (
"91 777 OFFCURVE",
"103 793 OFFCURVE",
"132 793 CURVE SMOOTH",
"191 793 OFFCURVE",
"228 742 OFFCURVE",
"280 742 CURVE SMOOTH",
"331 742 OFFCURVE",
"373 772 OFFCURVE",
"389 831 CURVE",
"319 860 LINE",
"310 825 OFFCURVE",
"297 809 OFFCURVE",
"270 809 CURVE SMOOTH",
"217 809 OFFCURVE",
"171 859 OFFCURVE",
"120 859 CURVE SMOOTH",
"63 859 OFFCURVE",
"28 828 OFFCURVE",
"15 771 CURVE",
"83 742 LINE"
);
}
);
width = 405;
}
);
unicode = 081A;
},
{
glyphname = uni081B;
lastChange = "2017-03-01 14:39:04 +0000";
layers = (
{
layerId = UUID0;
paths = (
{
closed = 1;
nodes = (
"77 826 OFFCURVE",
"88 842 OFFCURVE",
"117 842 CURVE SMOOTH",
"171 842 OFFCURVE",
"214 791 OFFCURVE",
"265 791 CURVE SMOOTH",
"316 791 OFFCURVE",
"358 821 OFFCURVE",
"374 880 CURVE",
"304 909 LINE",
"295 874 OFFCURVE",
"283 857 OFFCURVE",
"255 857 CURVE SMOOTH",
"204 857 OFFCURVE",
"158 908 OFFCURVE",
"105 908 CURVE SMOOTH",
"49 908 OFFCURVE",
"13 876 OFFCURVE",
"0 820 CURVE",
"68 791 LINE"
);
}
);
width = 0;
}
);
unicode = 081B;
},
{
glyphname = uni081C;
lastChange = "2017-03-01 14:39:04 +0000";
layers = (
{
layerId = UUID0;
paths = (
{
closed = 1;
nodes = (
"-107 851 OFFCURVE",
"-60 929 OFFCURVE",
"-1 994 CURVE",
"-53 1032 LINE",
"-92 985 OFFCURVE",
"-126 933 OFFCURVE",
"-152 873 CURVE",
"-173 942 OFFCURVE",
"-192 987 OFFCURVE",
"-227 1046 CURVE",
"-308 1012 LINE",
"-263 955 OFFCURVE",
"-224 877 OFFCURVE",
"-194 796 CURVE",
"-135 781 LINE"
);
}
);
width = 0;
}
);
unicode = 081C;
},
{
glyphname = uni081D;
lastChange = "2017-03-01 14:39:04 +0000";
layers = (
{
layerId = UUID0;
paths = (
{
closed = 1;
nodes = (
"-107 846 OFFCURVE",
"-67 905 OFFCURVE",
"-24 954 CURVE",
"-66 984 LINE",
"-90 957 OFFCURVE",
"-122 910 OFFCURVE",
"-145 856 CURVE",
"-161 914 OFFCURVE",
"-173 938 OFFCURVE",
"-205 995 CURVE",
"-270 968 LINE",
"-234 923 OFFCURVE",
"-202 861 OFFCURVE",
"-179 796 CURVE",
"-131 784 LINE"
);
}
);
width = 0;
}
);
unicode = 081D;
},
{
glyphname = uni081E;
lastChange = "2017-03-01 14:39:04 +0000";
layers = (
{
layerId = UUID0;
paths = (
{
closed = 1;
nodes = (
"-37 791 LINE",
"-23 861 OFFCURVE",
"-15 936 OFFCURVE",
"-15 997 CURVE SMOOTH",
"-15 1019 OFFCURVE",
"-16 1039 OFFCURVE",
"-18 1058 CURVE",
"-119 1041 LINE",
"-104 993 OFFCURVE",
"-93 883 OFFCURVE",
"-93 823 CURVE SMOOTH",
"-93 809 OFFCURVE",
"-94 797 OFFCURVE",
"-95 787 CURVE"
);
}
);
width = 0;
}
);
unicode = 081E;
},
{
glyphname = uni081F;
lastChange = "2017-03-01 14:39:04 +0000";
layers = (
{
layerId = UUID0;
paths = (
{
closed = 1;
nodes = (
"-33 791 LINE",
"-21 852 OFFCURVE",
"-15 913 OFFCURVE",
"-15 970 CURVE SMOOTH",
"-15 989 OFFCURVE",
"-15 1006 OFFCURVE",
"-18 1023 CURVE",
"-104 1008 LINE",
"-90 965 OFFCURVE",
"-82 872 OFFCURVE",
"-82 818 CURVE SMOOTH",
"-82 807 OFFCURVE",
"-83 796 OFFCURVE",
"-83 787 CURVE"
);
}
);
width = 0;
}
);
unicode = 081F;
},
{
glyphname = uni0820;
lastChange = "2017-03-01 14:39:04 +0000";
layers = (
{
layerId = UUID0;
paths = (
{
closed = 1;
nodes = (
"-31 791 LINE",
"-21 845 OFFCURVE",
"-15 903 OFFCURVE",
"-15 945 CURVE SMOOTH",
"-15 961 OFFCURVE",
"-15 976 OFFCURVE",
"-17 991 CURVE",
"-92 978 LINE",
"-83 946 OFFCURVE",
"-73 861 OFFCURVE",
"-73 815 CURVE SMOOTH",
"-73 805 OFFCURVE",
"-73 796 OFFCURVE",
"-74 788 CURVE"
);
}
);
width = 0;
}
);
unicode = 0820;
},
{
glyphname = uni0821;
lastChange = "2017-03-01 14:39:04 +0000";
layers = (
{
layerId = UUID0;
paths = (
{
closed = 1;
nodes = (
"-11 791 LINE",
"0 854 LINE",
"-403 854 LINE",
"-414 791 LINE"
);
}
);
width = 0;
}
);
unicode = 0821;
},
{
glyphname = uni0822;
lastChange = "2017-03-01 14:39:04 +0000";
layers = (
{
layerId = UUID0;
paths = (
{
closed = 1;
nodes = (
"-9 791 LINE",
"0 848 LINE",
"-329 848 LINE",
"-338 791 LINE"
);
}
);
width = 0;
}
);
unicode = 0822;
},
{
glyphname = uni0823;
lastChange = "2017-03-01 14:39:04 +0000";
layers = (
{
layerId = UUID0;
paths = (
{
closed = 1;
nodes = (
"-23 791 LINE",
"-15 840 LINE",
"-278 840 LINE",
"-286 791 LINE"
);
}
);
width = 0;
}
);
unicode = 0823;
},
{
glyphname = uni0824;
lastChange = "2017-03-01 14:39:04 +0000";
layers = (
{
layerId = UUID0;
paths = (
{
closed = 1;
nodes = (
"112 811 OFFCURVE",
"187 932 OFFCURVE",
"210 1021 CURVE",
"115 1007 LINE",
"100 936 OFFCURVE",
"54 825 OFFCURVE",
"12 756 CURVE",
"44 743 LINE"
);
}
);
width = 229;
}
);
unicode = 0824;
},
{
glyphname = uni0825;
lastChange = "2017-03-01 14:39:04 +0000";
layers = (
{
layerId = UUID0;
paths = (
{
closed = 1;
nodes = (
"-98 850 OFFCURVE",
"-24 971 OFFCURVE",
"0 1061 CURVE",
"-95 1047 LINE",
"-113 971 OFFCURVE",
"-158 862 OFFCURVE",
"-199 796 CURVE",
"-167 783 LINE"
);
}
);
width = 0;
}
);
unicode = 0825;
},
{
glyphname = uni0826;
lastChange = "2017-03-01 14:39:04 +0000";
layers = (
{
layerId = UUID0;
paths = (
{
closed = 1;
nodes = (
"-190 842 OFFCURVE",
"-170 887 OFFCURVE",
"-151 954 CURVE",
"-125 894 OFFCURVE",
"-91 841 OFFCURVE",
"-52 794 CURVE",
"0 833 LINE",
"-58 897 OFFCURVE",
"-106 976 OFFCURVE",
"-133 1045 CURVE",
"-193 1030 LINE",
"-223 949 OFFCURVE",
"-262 871 OFFCURVE",
"-307 814 CURVE",
"-226 780 LINE"
);
}
);
width = 0;
}
);
unicode = 0826;
},
{
glyphname = uni0827;
lastChange = "2017-03-01 14:39:04 +0000";
layers = (
{
layerId = UUID0;
paths = (
{
closed = 1;
nodes = (
"-187 832 OFFCURVE",
"-170 870 OFFCURVE",
"-155 923 CURVE",
"-138 883 OFFCURVE",
"-105 830 OFFCURVE",
"-76 795 CURVE",
"-34 826 LINE",
"-81 880 OFFCURVE",
"-119 938 OFFCURVE",
"-141 996 CURVE",
"-188 984 LINE",
"-212 919 OFFCURVE",
"-244 857 OFFCURVE",
"-279 812 CURVE",
"-214 785 LINE"
);
}
);
width = 0;
}
);
unicode = 0827;
},
{
glyphname = uni0828;
lastChange = "2017-03-01 14:39:04 +0000";
layers = (
{
layerId = UUID0;
paths = (
{
closed = 1;
nodes = (
"234 802 LINE",
"174 839 OFFCURVE",
"125 858 OFFCURVE",
"84 862 CURVE",
"159 887 OFFCURVE",
"202 904 OFFCURVE",
"228 923 CURVE",
"207 963 LINE",
"178 941 OFFCURVE",
"118 913 OFFCURVE",
"26 879 CURVE",
"13 828 LINE",
"82 806 OFFCURVE",
"153 780 OFFCURVE",
"201 743 CURVE"
);
}
);
width = 247;
}
);
unicode = 0828;
},
{
glyphname = uni0829;
lastChange = "2017-03-01 14:39:04 +0000";
layers = (
{
layerId = UUID0;
paths = (
{
closed = 1;
nodes = (
"-13 854 LINE",
"-84 898 OFFCURVE",
"-147 922 OFFCURVE",
"-198 925 CURVE",
"-103 957 OFFCURVE",
"-51 978 OFFCURVE",
"-18 1002 CURVE",
"-46 1052 LINE",
"-104 1011 OFFCURVE",
"-182 981 OFFCURVE",
"-265 951 CURVE",
"-281 885 LINE",
"-187 857 OFFCURVE",
"-107 821 OFFCURVE",
"-54 778 CURVE"
);
}
);
width = 0;
}
);
unicode = 0829;
},
{
glyphname = uni082A;
lastChange = "2017-03-01 14:39:04 +0000";
layers = (
{
layerId = UUID0;
paths = (
{
closed = 1;
nodes = (
"-21 850 LINE",
"-81 887 OFFCURVE",
"-130 906 OFFCURVE",
"-170 910 CURVE",
"-95 935 OFFCURVE",
"-58 948 OFFCURVE",
"-26 971 CURVE",
"-47 1011 LINE",
"-76 989 OFFCURVE",
"-137 960 OFFCURVE",
"-228 927 CURVE",
"-241 875 LINE",
"-173 855 OFFCURVE",
"-102 829 OFFCURVE",
"-53 791 CURVE"
);
}
);
width = 0;
}
);
unicode = 082A;
},
{
glyphname = uni082B;
lastChange = "2017-03-01 14:39:04 +0000";
layers = (
{
layerId = UUID0;
paths = (
{
closed = 1;
nodes = (
"1 819 LINE",
"-50 876 OFFCURVE",
"-119 990 OFFCURVE",
"-146 1062 CURVE",
"-181 1052 LINE",
"-208 979 OFFCURVE",
"-255 893 OFFCURVE",
"-327 790 CURVE",
"-93 775 OFFCURVE",
"-50 772 OFFCURVE",
"-40 769 CURVE"
);
},
{
closed = 1;
nodes = (
"-225 831 LINE",
"-203 869 OFFCURVE",
"-171 934 OFFCURVE",
"-156 979 CURVE",
"-145 951 OFFCURVE",
"-128 919 OFFCURVE",
"-76 824 CURVE"
);
}
);
width = 0;
}
);
unicode = 082B;
},
{
glyphname = uni082C;
lastChange = "2017-03-01 14:39:04 +0000";
layers = (
{
layerId = UUID0;
paths = (
{
closed = 1;
nodes = (
"174 818 OFFCURVE",
"226 873 OFFCURVE",
"226 940 CURVE SMOOTH",
"226 1000 OFFCURVE",
"183 1038 OFFCURVE",
"122 1038 CURVE SMOOTH",
"51 1038 OFFCURVE",
"3 988 OFFCURVE",
"3 917 CURVE SMOOTH",
"3 856 OFFCURVE",
"44 818 OFFCURVE",
"105 818 CURVE SMOOTH"
);
},
{
closed = 1;
nodes = (
"75 871 OFFCURVE",
"58 889 OFFCURVE",
"58 921 CURVE SMOOTH",
"58 962 OFFCURVE",
"83 986 OFFCURVE",
"118 986 CURVE SMOOTH",
"149 986 OFFCURVE",
"169 966 OFFCURVE",
"169 932 CURVE SMOOTH",
"169 894 OFFCURVE",
"142 871 OFFCURVE",
"109 871 CURVE SMOOTH"
);
}
);
width = 0;
}
);
unicode = 082C;
},
{
glyphname = uni082D;
lastChange = "2017-03-01 14:39:04 +0000";
layers = (
{
layerId = UUID0;
paths = (
{
closed = 1;
nodes = (
"164 891 LINE",
"67 958 LINE",
"0 858 LINE",
"99 791 LINE"
);
}
);
width = 0;
}
);
unicode = 082D;
},
{
glyphname = uni0830;
lastChange = "2017-03-01 14:39:04 +0000";
layers = (
{
layerId = UUID0;
paths = (
{
closed = 1;
nodes = (
"261 382 LINE",
"165 448 LINE",
"98 349 LINE",
"197 282 LINE"
);
}
);
width = 359;
}
);
unicode = 0830;
},
{
glyphname = uni0831;
lastChange = "2017-03-01 14:39:04 +0000";
layers = (
{
layerId = UUID0;
paths = (
{
closed = 1;
nodes = (
"261 551 LINE",
"165 617 LINE",
"98 518 LINE",
"197 451 LINE"
);
},
{
closed = 1;
nodes = (
"261 176 LINE",
"165 242 LINE",
"98 143 LINE",
"197 76 LINE"
);
}
);
width = 359;
}
);
unicode = 0831;
},
{
glyphname = uni0832;
lastChange = "2017-03-01 14:39:04 +0000";
layers = (
{
layerId = UUID0;
paths = (
{
closed = 1;
nodes = (
"494 619 LINE",
"397 686 LINE",
"330 586 LINE",
"429 519 LINE"
);
},
{
closed = 1;
nodes = (
"261 619 LINE",
"165 686 LINE",
"98 586 LINE",
"197 519 LINE"
);
}
);
width = 591;
}
);
unicode = 0832;
},
{
glyphname = uni0833;
lastChange = "2017-03-01 14:39:04 +0000";
layers = (
{
layerId = UUID0;
paths = (
{
closed = 1;
nodes = (
"395 117 OFFCURVE",
"401 179 OFFCURVE",
"401 235 CURVE SMOOTH",
"401 339 OFFCURVE",
"279 435 OFFCURVE",
"181 539 CURVE",
"194 545 OFFCURVE",
"210 546 OFFCURVE",
"229 546 CURVE SMOOTH",
"309 546 OFFCURVE",
"384 500 OFFCURVE",
"497 500 CURVE SMOOTH",
"509 500 OFFCURVE",
"541 501 OFFCURVE",
"554 503 CURVE",
"573 613 LINE",
"557 609 OFFCURVE",
"519 607 OFFCURVE",
"498 607 CURVE SMOOTH",
"382 607 OFFCURVE",
"342 622 OFFCURVE",
"214 622 CURVE SMOOTH",
"166 622 OFFCURVE",
"128 613 OFFCURVE",
"98 599 CURVE",
"115 535 LINE",
"153 488 OFFCURVE",
"310 369 OFFCURVE",
"310 270 CURVE SMOOTH",
"310 216 OFFCURVE",
"286 188 OFFCURVE",
"240 162 CURVE",
"312 59 LINE"
);
},
{
closed = 1;
nodes = (
"777 551 LINE",
"681 617 LINE",
"613 518 LINE",
"713 451 LINE"
);
}
);
width = 875;
}
);
unicode = 0833;
},
{
glyphname = uni0834;
lastChange = "2017-03-01 14:39:04 +0000";
layers = (
{
layerId = UUID0;
paths = (
{
closed = 1;
nodes = (
"395 117 OFFCURVE",
"401 179 OFFCURVE",
"401 235 CURVE SMOOTH",
"401 339 OFFCURVE",
"279 435 OFFCURVE",
"181 539 CURVE",
"194 545 OFFCURVE",
"210 546 OFFCURVE",
"229 546 CURVE SMOOTH",
"309 546 OFFCURVE",
"384 500 OFFCURVE",
"497 500 CURVE SMOOTH",
"509 500 OFFCURVE",
"541 501 OFFCURVE",
"554 503 CURVE",
"573 613 LINE",
"557 609 OFFCURVE",
"519 607 OFFCURVE",
"498 607 CURVE SMOOTH",
"382 607 OFFCURVE",
"342 622 OFFCURVE",
"214 622 CURVE SMOOTH",
"166 622 OFFCURVE",
"128 613 OFFCURVE",
"98 599 CURVE",
"115 535 LINE",
"153 488 OFFCURVE",
"310 369 OFFCURVE",
"310 270 CURVE SMOOTH",
"310 216 OFFCURVE",
"286 188 OFFCURVE",
"240 162 CURVE",
"312 59 LINE"
);
},
{
closed = 1;
nodes = (
"777 176 LINE",
"681 242 LINE",
"613 143 LINE",
"713 76 LINE"
);
},
{
closed = 1;
nodes = (
"777 551 LINE",
"681 617 LINE",
"613 518 LINE",
"713 451 LINE"
);
}
);
width = 875;
}
);
unicode = 0834;
},
{
glyphname = uni0835;
lastChange = "2017-03-01 14:39:04 +0000";
layers = (
{
layerId = UUID0;
paths = (
{
closed = 1;
nodes = (
"474 137 LINE",
"319 171 OFFCURVE",
"201 225 OFFCURVE",
"201 262 CURVE SMOOTH",
"201 292 OFFCURVE",
"252 328 OFFCURVE",
"451 341 CURVE",
"443 406 LINE",
"263 398 OFFCURVE",
"124 354 OFFCURVE",
"105 275 CURVE SMOOTH",
"100 253 LINE SMOOTH",
"99 248 OFFCURVE",
"98 244 OFFCURVE",
"98 239 CURVE SMOOTH",
"98 126 OFFCURVE",
"416 42 OFFCURVE",
"481 34 CURVE"
);
},
{
closed = 1;
nodes = (
"266 547 LINE",
"188 601 LINE",
"135 521 LINE",
"214 467 LINE"
);
},
{
closed = 1;
nodes = (
"427 547 LINE",
"350 601 LINE",
"296 521 LINE",
"375 467 LINE"
);
}
);
width = 579;
}
);
unicode = 0835;
},
{
glyphname = uni0836;
lastChange = "2017-03-01 14:39:04 +0000";
layers = (
{
layerId = UUID0;
paths = (
{
closed = 1;
nodes = (
"342 -9 OFFCURVE",
"382 5 OFFCURVE",
"498 5 CURVE SMOOTH",
"519 5 OFFCURVE",
"557 3 OFFCURVE",
"573 -1 CURVE",
"554 109 LINE",
"541 111 OFFCURVE",
"509 113 OFFCURVE",
"497 113 CURVE SMOOTH",
"384 113 OFFCURVE",
"309 66 OFFCURVE",
"229 66 CURVE SMOOTH",
"210 66 OFFCURVE",
"194 67 OFFCURVE",
"181 74 CURVE",
"279 178 OFFCURVE",
"358 227 OFFCURVE",
"358 331 CURVE SMOOTH",
"358 370 OFFCURVE",
"355 421 OFFCURVE",
"282 477 CURVE",
"210 376 LINE",
"247 354 OFFCURVE",
"267 336 OFFCURVE",
"267 288 CURVE SMOOTH",
"267 199 OFFCURVE",
"153 125 OFFCURVE",
"115 77 CURVE",
"98 14 LINE",
"128 -1 OFFCURVE",
"166 -9 OFFCURVE",
"214 -9 CURVE SMOOTH"
);
},
{
closed = 1;
nodes = (
"359 619 LINE",
"263 686 LINE",
"195 586 LINE",
"294 519 LINE"
);
}
);
width = 670;
}
);
unicode = 0836;
},
{
glyphname = uni0837;
lastChange = "2017-03-01 14:39:04 +0000";
layers = (
{
layerId = UUID0;
paths = (
{
closed = 1;
nodes = (
"1034 117 OFFCURVE",
"1040 179 OFFCURVE",
"1040 235 CURVE SMOOTH",
"1040 339 OFFCURVE",
"918 435 OFFCURVE",
"819 539 CURVE",
"833 545 OFFCURVE",
"849 546 OFFCURVE",
"867 546 CURVE SMOOTH",
"947 546 OFFCURVE",
"1023 500 OFFCURVE",
"1135 500 CURVE SMOOTH",
"1148 500 OFFCURVE",
"1180 501 OFFCURVE",
"1192 503 CURVE",
"1211 613 LINE",
"1196 609 OFFCURVE",
"1158 607 OFFCURVE",
"1136 607 CURVE SMOOTH",
"1021 607 OFFCURVE",
"981 622 OFFCURVE",
"853 622 CURVE SMOOTH",
"805 622 OFFCURVE",
"767 613 OFFCURVE",
"736 599 CURVE",
"753 535 LINE",
"792 488 OFFCURVE",
"949 369 OFFCURVE",
"949 270 CURVE SMOOTH",
"949 216 OFFCURVE",
"925 188 OFFCURVE",
"879 162 CURVE",
"950 59 LINE"
);
},
{
closed = 1;
nodes = (
"748 320 LINE",
"762 407 LINE",
"112 407 LINE",
"98 320 LINE"
);
}
);
width = 1309;
}
);
unicode = 0837;
},
{
glyphname = uni0838;
lastChange = "2017-03-01 14:39:04 +0000";
layers = (
{
layerId = UUID0;
paths = (
{
closed = 1;
nodes = (
"748 320 LINE",
"762 407 LINE",
"112 407 LINE",
"98 320 LINE"
);
},
{
closed = 1;
nodes = (
"977 382 LINE",
"881 448 LINE",
"813 349 LINE",
"913 282 LINE"
);
}
);
width = 1075;
}
);
unicode = 0838;
},
{
glyphname = uni0839;
lastChange = "2017-03-01 14:39:04 +0000";
layers = (
{
layerId = UUID0;
paths = (
{
closed = 1;
nodes = (
"748 320 LINE",
"762 407 LINE",
"112 407 LINE",
"98 320 LINE"
);
},
{
closed = 1;
nodes = (
"966 176 LINE",
"870 242 LINE",
"803 143 LINE",
"902 76 LINE"
);
},
{
closed = 1;
nodes = (
"966 551 LINE",
"870 617 LINE",
"803 518 LINE",
"902 451 LINE"
);
}
);
width = 1064;
}
);
unicode = 0839;
},
{
glyphname = uni083A;
lastChange = "2017-03-01 14:39:04 +0000";
layers = (
{
layerId = UUID0;
paths = (
{
closed = 1;
nodes = (
"748 418 LINE",
"762 505 LINE",
"112 505 LINE",
"98 418 LINE"
);
},
{
closed = 1;
nodes = (
"748 198 LINE",
"762 285 LINE",
"112 285 LINE",
"98 198 LINE"
);
},
{
closed = 1;
nodes = (
"966 176 LINE",
"870 242 LINE",
"803 143 LINE",
"902 76 LINE"
);
},
{
closed = 1;
nodes = (
"966 551 LINE",
"870 617 LINE",
"803 518 LINE",
"902 451 LINE"
);
}
);
width = 1064;
}
);
unicode = 083A;
},
{
glyphname = uni083B;
lastChange = "2017-03-01 14:39:04 +0000";
layers = (
{
layerId = UUID0;
paths = (
{
closed = 1;
nodes = (
"182 84 LINE",
"182 609 LINE",
"98 609 LINE",
"98 84 LINE"
);
},
{
closed = 1;
nodes = (
"405 176 LINE",
"309 242 LINE",
"241 143 LINE",
"341 76 LINE"
);
},
{
closed = 1;
nodes = (
"405 551 LINE",
"309 617 LINE",
"241 518 LINE",
"341 451 LINE"
);
}
);
width = 502;
}
);
unicode = 083B;
},
{
glyphname = uni083C;
lastChange = "2017-03-01 14:39:04 +0000";
layers = (
{
layerId = UUID0;
paths = (
{
closed = 1;
nodes = (
"519 608 LINE",
"452 661 LINE",
"98 200 LINE",
"165 147 LINE"
);
}
);
width = 616;
}
);
unicode = 083C;
},
{
glyphname = uni083D;
lastChange = "2017-03-01 14:39:04 +0000";
layers = (
{
layerId = UUID0;
paths = (
{
closed = 1;
nodes = (
"519 608 LINE",
"452 661 LINE",
"98 200 LINE",
"165 147 LINE"
);
},
{
closed = 1;
nodes = (
"497 250 LINE",
"400 316 LINE",
"333 216 LINE",
"433 149 LINE"
);
},
{
closed = 1;
nodes = (
"708 257 LINE",
"611 323 LINE",
"544 224 LINE",
"644 156 LINE"
);
},
{
closed = 1;
nodes = (
"600 412 LINE",
"504 478 LINE",
"436 379 LINE",
"536 312 LINE"
);
}
);
width = 806;
}
);
unicode = 083D;
},
{
glyphname = uni083E;
lastChange = "2017-03-01 14:39:04 +0000";
layers = (
{
layerId = UUID0;
paths = (
{
closed = 1;
nodes = (
"277 253 OFFCURVE",
"328 313 OFFCURVE",
"328 379 CURVE SMOOTH",
"328 441 OFFCURVE",
"281 480 OFFCURVE",
"220 480 CURVE SMOOTH",
"150 480 OFFCURVE",
"98 432 OFFCURVE",
"98 355 CURVE SMOOTH",
"98 292 OFFCURVE",
"141 253 OFFCURVE",
"203 253 CURVE SMOOTH"
);
},
{
closed = 1;
nodes = (
"172 308 OFFCURVE",
"154 327 OFFCURVE",
"154 359 CURVE SMOOTH",
"154 401 OFFCURVE",
"180 427 OFFCURVE",
"216 427 CURVE SMOOTH",
"248 427 OFFCURVE",
"269 405 OFFCURVE",
"269 370 CURVE SMOOTH",
"269 333 OFFCURVE",
"241 308 OFFCURVE",
"207 308 CURVE SMOOTH"
);
}
);
width = 425;
}
);
unicode = 083E;
},
{
glyphname = uni0818.alt;
lastChange = "2017-03-01 14:39:04 +0000";
layers = (
{
layerId = UUID0;
paths = (
{
closed = 1;
nodes = (
"374 791 LINE",
"384 854 LINE",
"11 854 LINE",
"0 791 LINE"
);
}
);
width = 0;
}
);
},
{
glyphname = uni2E31;
lastChange = "2017-03-01 14:39:04 +0000";
layers = (
{
layerId = UUID0;
paths = (
{
closed = 1;
nodes = (
"249 292 OFFCURVE",
"284 322 OFFCURVE",
"284 370 CURVE SMOOTH",
"284 413 OFFCURVE",
"258 440 OFFCURVE",
"219 440 CURVE SMOOTH",
"173 440 OFFCURVE",
"141 409 OFFCURVE",
"141 356 CURVE SMOOTH",
"141 315 OFFCURVE",
"164 292 OFFCURVE",
"207 292 CURVE SMOOTH"
);
}
);
width = 425;
}
);
unicode = 2E31;
},
